<svg xmlns="http://www.w3.org/2000/svg" xmlns:xlink="http://www.w3.org/1999/xlink" width="500" zoomAndPan="magnify" viewBox="0 0 375 374.999991" height="500" preserveAspectRatio="xMidYMid meet" version="1.0"><path fill="#ffffff" d="M 374.828125 157.609375 C 374.679688 152.433594 374.152344 147.296875 373.25 142.199219 L 355.113281 27.84375 C 354.847656 26.152344 354.414062 24.503906 353.820312 22.898438 C 353.222656 21.292969 352.476562 19.757812 351.578125 18.300781 C 350.679688 16.84375 349.648438 15.488281 348.480469 14.234375 C 347.3125 12.980469 346.035156 11.851562 344.644531 10.851562 L 343.242188 9.808594 L 343.214844 9.847656 C 340.539062 8.164062 337.652344 7 334.554688 6.363281 C 331.457031 5.726562 328.347656 5.65625 325.222656 6.148438 C 322.164062 6.636719 319.285156 7.648438 316.585938 9.175781 C 313.886719 10.699219 311.542969 12.648438 309.546875 15.019531 C 308.433594 14.476562 307.289062 14.007812 306.113281 13.621094 C 302.125 12.328125 298.070312 12.035156 293.9375 12.746094 L 293.21875 12.859375 C 290.246094 13.417969 287.457031 14.46875 284.851562 16.007812 C 282.25 17.546875 279.984375 19.484375 278.058594 21.820312 L 276.941406 23.222656 C 275.929688 24.605469 275.066406 26.074219 274.347656 27.625 C 273.628906 29.179688 273.066406 30.789062 272.667969 32.453125 C 272.265625 34.117188 272.03125 35.808594 271.964844 37.519531 C 271.898438 39.230469 272 40.929688 272.269531 42.621094 L 285.839844 127.832031 L 220.8125 217.5625 L 220.582031 217.800781 C 218.144531 220.691406 216.425781 223.960938 215.421875 227.609375 C 214.441406 231.058594 214.207031 234.5625 214.714844 238.117188 L 228.472656 324.976562 C 228.617188 325.902344 228.9375 326.761719 229.433594 327.554688 C 229.933594 328.347656 230.570312 329.007812 231.34375 329.535156 L 282.710938 366.816406 L 283.136719 367.183594 C 283.503906 367.449219 283.894531 367.675781 284.308594 367.863281 C 284.71875 368.050781 285.144531 368.195312 285.585938 368.300781 C 286.027344 368.402344 286.476562 368.464844 286.925781 368.480469 C 287.378906 368.5 287.832031 368.472656 288.277344 368.402344 C 288.726562 368.328125 289.160156 368.214844 289.585938 368.058594 C 290.011719 367.902344 290.417969 367.707031 290.804688 367.472656 C 291.191406 367.234375 291.550781 366.964844 291.886719 366.660156 C 292.21875 366.351562 292.519531 366.015625 292.789062 365.652344 L 325.839844 320.046875 C 326.398438 319.289062 326.78125 318.449219 326.996094 317.535156 C 327.210938 316.617188 327.234375 315.695312 327.070312 314.769531 L 323.546875 295.375 L 372.90625 172.273438 C 374.371094 167.492188 375.011719 162.605469 374.828125 157.609375 Z M 288.136719 31.332031 L 288.519531 30.800781 C 289.472656 29.613281 290.605469 28.636719 291.917969 27.871094 C 293.230469 27.105469 294.636719 26.597656 296.136719 26.351562 C 298.09375 26.042969 300.019531 26.171875 301.917969 26.734375 C 302.527344 26.929688 303.105469 27.195312 303.648438 27.53125 C 303.164062 30.351562 303.132812 33.175781 303.550781 36.003906 L 316.199219 115.644531 C 312.417969 114.480469 308.574219 114.210938 304.664062 114.832031 C 302.378906 115.222656 300.179688 115.898438 298.066406 116.851562 L 285.898438 40.445312 C 285.65625 38.835938 285.730469 37.246094 286.117188 35.667969 C 286.503906 34.089844 287.179688 32.644531 288.136719 31.332031 Z M 359.976562 167.503906 L 310.046875 292.027344 C 309.484375 293.34375 309.363281 294.699219 309.683594 296.09375 L 312.976562 314.304688 L 285.652344 351.945312 L 241.703125 320.046875 L 228.363281 236.191406 C 228.117188 234.460938 228.246094 232.761719 228.742188 231.085938 C 229.242188 229.414062 230.066406 227.921875 231.21875 226.609375 L 298.820312 133.382812 C 299.707031 132.160156 300.78125 131.140625 302.046875 130.316406 C 303.308594 129.492188 304.679688 128.925781 306.15625 128.609375 L 306.804688 128.507812 C 308.289062 128.25 309.769531 128.269531 311.246094 128.566406 C 312.722656 128.863281 314.097656 129.414062 315.367188 130.21875 L 315.976562 130.660156 C 317.296875 131.621094 318.378906 132.800781 319.226562 134.195312 C 320.074219 135.589844 320.621094 137.097656 320.867188 138.710938 C 321.128906 140.3125 321.074219 141.902344 320.699219 143.480469 C 320.324219 145.058594 319.65625 146.503906 318.699219 147.8125 L 272 212.136719 C 271.734375 212.503906 271.503906 212.894531 271.316406 213.308594 C 271.128906 213.71875 270.980469 214.148438 270.875 214.589844 C 270.769531 215.03125 270.710938 215.480469 270.691406 215.933594 C 270.675781 216.386719 270.703125 216.835938 270.773438 217.285156 C 270.847656 217.734375 270.960938 218.171875 271.121094 218.597656 C 271.277344 219.023438 271.476562 219.429688 271.714844 219.816406 C 271.949219 220.203125 272.222656 220.5625 272.53125 220.894531 C 272.839844 221.226562 273.179688 221.527344 273.546875 221.792969 C 273.914062 222.058594 274.304688 222.289062 274.71875 222.476562 C 275.128906 222.667969 275.558594 222.816406 276 222.921875 C 276.441406 223.027344 276.886719 223.085938 277.339844 223.105469 C 277.796875 223.121094 278.246094 223.09375 278.695312 223.023438 C 279.144531 222.953125 279.582031 222.839844 280.007812 222.679688 C 280.433594 222.523438 280.839844 222.328125 281.226562 222.089844 C 281.613281 221.851562 281.972656 221.578125 282.304688 221.269531 C 282.640625 220.960938 282.941406 220.625 283.207031 220.257812 L 329.90625 155.933594 C 330.917969 154.546875 331.78125 153.078125 332.5 151.519531 C 333.21875 149.964844 333.773438 148.351562 334.171875 146.683594 C 334.570312 145.015625 334.800781 143.328125 334.863281 141.613281 C 334.925781 139.898438 334.820312 138.199219 334.542969 136.503906 C 334.144531 134.25 333.464844 132.085938 332.503906 130.011719 L 317.21875 33.855469 C 316.949219 32.246094 317.003906 30.648438 317.382812 29.0625 C 317.765625 27.476562 318.441406 26.027344 319.414062 24.714844 L 319.769531 24.25 C 320.710938 23.054688 321.835938 22.070312 323.148438 21.300781 C 324.457031 20.527344 325.863281 20.023438 327.367188 19.78125 C 328.871094 19.554688 330.367188 19.597656 331.855469 19.914062 C 333.34375 20.230469 334.730469 20.796875 336.015625 21.613281 L 336.546875 21.996094 C 337.859375 22.957031 338.945312 24.132812 339.796875 25.519531 C 340.644531 26.90625 341.203125 28.40625 341.464844 30.011719 L 359.671875 144.535156 C 360.472656 148.929688 360.941406 153.359375 361.074219 157.824219 C 361.230469 161.109375 360.863281 164.335938 359.976562 167.503906 Z M 154.25 217.800781 L 154.019531 217.5625 L 88.996094 127.824219 L 102.566406 42.609375 C 102.835938 40.921875 102.9375 39.21875 102.871094 37.507812 C 102.804688 35.796875 102.570312 34.109375 102.167969 32.445312 C 101.769531 30.78125 101.210938 29.171875 100.488281 27.617188 C 99.769531 26.0625 98.90625 24.59375 97.898438 23.210938 L 96.78125 21.8125 C 94.855469 19.476562 92.589844 17.539062 89.988281 16 C 87.382812 14.460938 84.59375 13.410156 81.621094 12.847656 L 80.902344 12.738281 C 76.773438 12.027344 72.714844 12.316406 68.726562 13.609375 C 67.550781 13.996094 66.40625 14.464844 65.296875 15.011719 C 63.300781 12.640625 60.953125 10.691406 58.253906 9.164062 C 55.558594 7.636719 52.679688 6.628906 49.617188 6.136719 C 46.496094 5.648438 43.386719 5.722656 40.289062 6.363281 C 37.195312 7 34.308594 8.160156 31.632812 9.847656 L 31.605469 9.808594 L 30.171875 10.851562 C 28.785156 11.851562 27.507812 12.980469 26.339844 14.234375 C 25.175781 15.488281 24.144531 16.84375 23.246094 18.304688 C 22.347656 19.761719 21.605469 21.292969 21.011719 22.898438 C 20.414062 24.503906 19.984375 26.152344 19.714844 27.84375 L 1.582031 142.222656 C 0.675781 147.3125 0.148438 152.441406 0 157.609375 C -0.183594 162.605469 0.457031 167.492188 1.925781 172.273438 L 51.28125 295.375 L 47.765625 314.777344 C 47.601562 315.703125 47.625 316.625 47.839844 317.542969 C 48.058594 318.460938 48.445312 319.296875 49.003906 320.054688 L 82.046875 365.660156 C 82.316406 366.027344 82.617188 366.363281 82.949219 366.667969 C 83.285156 366.972656 83.644531 367.246094 84.03125 367.480469 C 84.417969 367.714844 84.824219 367.914062 85.25 368.070312 C 85.675781 368.226562 86.113281 368.339844 86.558594 368.410156 C 87.007812 368.480469 87.457031 368.507812 87.910156 368.492188 C 88.363281 368.472656 88.808594 368.414062 89.25 368.308594 C 89.691406 368.203125 90.117188 368.058594 90.527344 367.871094 C 90.941406 367.683594 91.332031 367.457031 91.699219 367.195312 L 92.125 366.824219 L 143.496094 329.542969 C 144.265625 329.015625 144.902344 328.355469 145.398438 327.5625 C 145.898438 326.769531 146.21875 325.910156 146.355469 324.988281 L 160.121094 238.125 C 160.628906 234.570312 160.394531 231.070312 159.414062 227.617188 C 158.40625 223.96875 156.6875 220.695312 154.25 217.800781 Z M 71.28125 36.003906 C 71.703125 33.175781 71.671875 30.351562 71.1875 27.53125 C 71.734375 27.195312 72.3125 26.929688 72.921875 26.734375 C 74.820312 26.171875 76.746094 26.042969 78.699219 26.351562 C 80.199219 26.597656 81.605469 27.105469 82.921875 27.871094 C 84.234375 28.636719 85.367188 29.613281 86.320312 30.800781 L 86.703125 31.332031 C 87.660156 32.644531 88.332031 34.089844 88.71875 35.667969 C 89.101562 37.246094 89.175781 38.839844 88.929688 40.445312 L 76.761719 116.851562 C 74.648438 115.894531 72.449219 115.222656 70.160156 114.832031 C 66.253906 114.210938 62.414062 114.480469 58.632812 115.644531 Z M 146.46875 236.191406 L 133.128906 320.035156 L 89.195312 351.9375 L 61.878906 314.296875 L 65.144531 296.082031 C 65.46875 294.691406 65.351562 293.332031 64.792969 292.015625 L 14.851562 167.503906 C 13.972656 164.339844 13.617188 161.117188 13.78125 157.839844 C 13.902344 153.367188 14.359375 148.933594 15.152344 144.535156 L 33.367188 29.996094 C 33.628906 28.394531 34.179688 26.902344 35.03125 25.515625 C 35.878906 24.128906 36.957031 22.957031 38.265625 21.996094 L 38.792969 21.613281 C 40.078125 20.796875 41.464844 20.230469 42.953125 19.914062 C 44.441406 19.601562 45.9375 19.554688 47.441406 19.78125 C 48.945312 20.015625 50.355469 20.519531 51.671875 21.289062 C 52.988281 22.058594 54.117188 23.039062 55.0625 24.234375 L 55.417969 24.703125 C 56.390625 26.015625 57.066406 27.464844 57.449219 29.054688 C 57.828125 30.644531 57.882812 32.242188 57.609375 33.855469 L 42.34375 130.011719 C 41.859375 131.042969 41.445312 132.105469 41.105469 133.195312 C 40.761719 134.285156 40.496094 135.390625 40.304688 136.515625 C 40.113281 137.640625 39.996094 138.773438 39.957031 139.914062 C 39.917969 141.054688 39.957031 142.195312 40.070312 143.328125 C 40.183594 144.464844 40.375 145.589844 40.636719 146.699219 C 40.902344 147.808594 41.242188 148.898438 41.652344 149.960938 C 42.066406 151.027344 42.546875 152.058594 43.097656 153.058594 C 43.648438 154.058594 44.265625 155.015625 44.945312 155.933594 L 91.644531 220.257812 C 91.914062 220.617188 92.214844 220.949219 92.546875 221.25 C 92.882812 221.554688 93.242188 221.820312 93.628906 222.050781 C 94.015625 222.28125 94.417969 222.476562 94.84375 222.628906 C 95.265625 222.78125 95.699219 222.890625 96.144531 222.957031 C 96.589844 223.023438 97.035156 223.050781 97.488281 223.027344 C 97.9375 223.007812 98.378906 222.945312 98.816406 222.839844 C 99.253906 222.734375 99.675781 222.585938 100.085938 222.398438 C 100.492188 222.207031 100.878906 221.980469 101.246094 221.71875 C 101.609375 221.453125 101.945312 221.15625 102.25 220.824219 C 102.554688 220.496094 102.828125 220.140625 103.0625 219.757812 C 103.300781 219.375 103.496094 218.972656 103.65625 218.550781 C 103.8125 218.128906 103.929688 217.695312 104.003906 217.25 C 104.074219 216.808594 104.105469 216.359375 104.09375 215.910156 C 104.078125 215.460938 104.019531 215.015625 103.921875 214.578125 C 103.820312 214.140625 103.675781 213.714844 103.492188 213.304688 C 103.308594 212.894531 103.089844 212.503906 102.828125 212.136719 L 56.128906 147.8125 C 55.171875 146.5 54.503906 145.058594 54.128906 143.480469 C 53.753906 141.898438 53.699219 140.3125 53.964844 138.710938 C 54.210938 137.097656 54.753906 135.59375 55.597656 134.195312 C 56.445312 132.800781 57.523438 131.621094 58.84375 130.660156 L 59.445312 130.21875 C 60.714844 129.414062 62.089844 128.863281 63.566406 128.570312 C 65.042969 128.273438 66.523438 128.253906 68.007812 128.507812 L 68.664062 128.609375 C 70.136719 128.925781 71.507812 129.496094 72.769531 130.316406 C 74.035156 131.140625 75.109375 132.160156 75.996094 133.382812 L 143.621094 226.609375 C 144.769531 227.921875 145.59375 229.414062 146.09375 231.089844 C 146.59375 232.761719 146.71875 234.460938 146.480469 236.191406 Z M 257.054688 115.496094 C 258.269531 112.574219 259.152344 109.554688 259.707031 106.441406 C 260.265625 103.328125 260.476562 100.1875 260.347656 97.027344 C 260.21875 93.867188 259.753906 90.753906 258.945312 87.695312 C 258.140625 84.636719 257.011719 81.699219 255.566406 78.886719 C 255.183594 78.136719 254.78125 77.394531 254.359375 76.664062 C 253.933594 75.9375 253.492188 75.21875 253.027344 74.515625 C 252.5625 73.8125 252.082031 73.121094 251.578125 72.445312 C 251.074219 71.765625 250.554688 71.105469 250.011719 70.457031 C 249.472656 69.808594 248.914062 69.175781 248.339844 68.5625 C 247.765625 67.945312 247.171875 67.34375 246.5625 66.761719 C 245.953125 66.179688 245.328125 65.613281 244.6875 65.066406 C 244.042969 64.519531 243.386719 63.992188 242.71875 63.480469 C 242.046875 62.96875 241.359375 62.480469 240.664062 62.007812 C 239.964844 61.535156 239.25 61.082031 238.527344 60.652344 C 237.804688 60.21875 237.066406 59.808594 236.320312 59.417969 C 235.570312 59.027344 234.8125 58.660156 234.046875 58.3125 C 233.277344 57.964844 232.5 57.640625 231.714844 57.335938 C 230.925781 57.03125 230.132812 56.75 229.328125 56.492188 C 228.527344 56.234375 227.71875 55.996094 226.902344 55.785156 C 226.085938 55.570312 225.265625 55.382812 224.4375 55.214844 C 223.613281 55.046875 222.78125 54.902344 221.945312 54.785156 C 221.113281 54.664062 220.273438 54.566406 219.433594 54.496094 C 218.59375 54.421875 217.753906 54.371094 216.910156 54.347656 C 216.066406 54.320312 215.226562 54.320312 214.382812 54.34375 C 213.539062 54.363281 212.699219 54.410156 211.855469 54.480469 C 211.015625 54.550781 210.179688 54.644531 209.34375 54.761719 C 208.507812 54.875 207.679688 55.015625 206.851562 55.179688 C 206.023438 55.34375 205.203125 55.53125 204.386719 55.742188 C 203.566406 55.953125 202.757812 56.183594 201.953125 56.441406 C 201.152344 56.695312 200.355469 56.972656 199.566406 57.273438 C 198.78125 57.574219 198 57.898438 197.230469 58.242188 C 196.460938 58.585938 195.703125 58.953125 194.953125 59.339844 C 194.203125 59.726562 193.46875 60.136719 192.742188 60.566406 C 192.015625 60.992188 191.300781 61.441406 190.601562 61.910156 C 189.902344 62.382812 189.214844 62.871094 188.539062 63.378906 C 187.867188 63.886719 187.210938 64.410156 186.566406 64.957031 C 185.675781 64.246094 184.855469 63.59375 184.007812 62.96875 C 182.226562 61.664062 180.359375 60.5 178.40625 59.472656 C 176.457031 58.445312 174.4375 57.566406 172.355469 56.839844 C 170.273438 56.109375 168.148438 55.535156 165.984375 55.121094 C 163.816406 54.707031 161.632812 54.453125 159.425781 54.359375 C 157.222656 54.269531 155.023438 54.339844 152.832031 54.570312 C 150.636719 54.804688 148.472656 55.195312 146.335938 55.75 C 144.199219 56.300781 142.117188 57.007812 140.085938 57.871094 C 138.054688 58.730469 136.097656 59.734375 134.214844 60.882812 C 132.34375 62.015625 130.5625 63.277344 128.875 64.667969 C 127.191406 66.0625 125.617188 67.574219 124.152344 69.203125 C 122.691406 70.828125 121.359375 72.554688 120.152344 74.378906 C 118.949219 76.207031 117.882812 78.109375 116.960938 80.09375 C 116.039062 82.078125 115.265625 84.117188 114.644531 86.214844 C 114.027344 88.3125 113.5625 90.445312 113.261719 92.613281 C 112.957031 94.777344 112.816406 96.957031 112.835938 99.144531 C 112.855469 101.332031 113.035156 103.503906 113.378906 105.664062 C 114.292969 110.546875 115.761719 115.253906 117.789062 119.785156 C 119.816406 124.320312 122.34375 128.554688 125.371094 132.488281 C 141.308594 155.15625 162.589844 172.410156 181.28125 186.273438 C 182.820312 187.515625 184.582031 188.164062 186.5625 188.222656 C 187.695312 188.179688 188.785156 187.941406 189.832031 187.503906 C 190.875 187.0625 191.808594 186.453125 192.632812 185.671875 C 196.558594 182.316406 200.539062 179.007812 204.515625 175.695312 C 213.390625 168.316406 222.542969 160.691406 231.0625 152.632812 C 236.675781 147.445312 241.671875 141.722656 246.054688 135.460938 C 250.4375 129.199219 254.101562 122.542969 257.054688 115.496094 Z M 186.519531 173.304688 C 166.316406 157.96875 145.503906 140.96875 131.800781 117.066406 C 122.800781 101.382812 125.019531 85.648438 137.738281 74.980469 C 138.464844 74.367188 139.222656 73.792969 140.003906 73.253906 C 140.785156 72.714844 141.589844 72.210938 142.417969 71.742188 C 143.246094 71.277344 144.097656 70.851562 144.964844 70.460938 C 145.832031 70.074219 146.714844 69.726562 147.613281 69.417969 C 148.515625 69.113281 149.425781 68.847656 150.351562 68.625 C 151.273438 68.402344 152.207031 68.222656 153.148438 68.085938 C 154.085938 67.949219 155.03125 67.855469 155.980469 67.804688 C 156.929688 67.753906 157.878906 67.746094 158.832031 67.785156 C 159.78125 67.820312 160.726562 67.902344 161.667969 68.023438 C 162.609375 68.148438 163.546875 68.316406 164.472656 68.527344 C 165.398438 68.734375 166.316406 68.988281 167.21875 69.28125 C 168.121094 69.578125 169.011719 69.910156 169.882812 70.289062 C 170.757812 70.664062 171.613281 71.078125 172.445312 71.535156 C 173.28125 71.988281 174.09375 72.480469 174.882812 73.007812 C 175.671875 73.539062 176.4375 74.101562 177.171875 74.703125 C 177.910156 75.300781 178.621094 75.933594 179.300781 76.597656 C 185.371094 82.496094 187.5 82.5625 193.550781 77.015625 L 193.898438 76.695312 C 194.957031 75.621094 196.089844 74.628906 197.296875 73.726562 C 198.503906 72.820312 199.773438 72.007812 201.101562 71.292969 C 202.429688 70.578125 203.808594 69.96875 205.226562 69.460938 C 206.648438 68.953125 208.101562 68.550781 209.582031 68.261719 C 211.0625 67.972656 212.558594 67.792969 214.066406 67.730469 C 215.574219 67.664062 217.078125 67.710938 218.578125 67.871094 C 220.078125 68.03125 221.558594 68.304688 223.019531 68.6875 C 224.480469 69.070312 225.902344 69.5625 227.289062 70.160156 C 228.734375 70.730469 230.132812 71.40625 231.476562 72.183594 C 232.824219 72.964844 234.105469 73.839844 235.320312 74.8125 C 236.535156 75.78125 237.667969 76.839844 238.726562 77.980469 C 239.78125 79.121094 240.746094 80.335938 241.621094 81.621094 C 242.496094 82.90625 243.269531 84.25 243.945312 85.652344 C 244.617188 87.054688 245.183594 88.5 245.640625 89.988281 C 246.097656 91.472656 246.441406 92.984375 246.671875 94.523438 C 246.902344 96.0625 247.015625 97.609375 247.015625 99.164062 C 246.753906 103.214844 245.933594 107.148438 244.554688 110.960938 C 243.179688 114.777344 241.292969 118.328125 238.90625 121.609375 C 224.714844 143.03125 205.367188 159.109375 186.519531 173.304688 Z M 186.519531 173.304688 " fill-opacity="1" fill-rule="nonzero"/></svg>