<svg xmlns="http://www.w3.org/2000/svg" xmlns:xlink="http://www.w3.org/1999/xlink" width="500" zoomAndPan="magnify" viewBox="0 0 375 374.999991" height="500" preserveAspectRatio="xMidYMid meet" version="1.0"><path fill="#ffffff" d="M 156.414062 53.824219 L 218.585938 53.824219 C 222.757812 53.824219 226.054688 57.117188 226.054688 61.292969 L 226.054688 149.164062 L 313.929688 149.164062 C 317.882812 149.164062 321.175781 152.460938 321.175781 156.414062 L 321.175781 218.585938 C 321.175781 222.757812 317.882812 226.054688 313.929688 226.054688 L 226.054688 226.054688 L 226.054688 313.929688 C 226.054688 317.882812 222.757812 321.175781 218.585938 321.175781 L 156.414062 321.175781 C 152.460938 321.175781 149.164062 317.882812 149.164062 313.929688 L 149.164062 226.054688 L 61.292969 226.054688 C 57.117188 226.054688 53.824219 222.757812 53.824219 218.585938 L 53.824219 156.414062 C 53.824219 152.460938 57.117188 149.164062 61.292969 149.164062 L 149.164062 149.164062 L 149.164062 61.292969 C 149.164062 57.117188 152.460938 53.824219 156.414062 53.824219 Z M 211.335938 68.542969 L 163.664062 68.542969 L 163.664062 156.414062 C 163.664062 160.367188 160.367188 163.664062 156.414062 163.664062 L 68.542969 163.664062 L 68.542969 211.335938 L 156.414062 211.335938 C 160.367188 211.335938 163.664062 214.632812 163.664062 218.585938 L 163.664062 306.457031 L 211.335938 306.457031 L 211.335938 218.585938 C 211.335938 214.632812 214.632812 211.335938 218.585938 211.335938 L 306.457031 211.335938 L 306.457031 163.664062 L 218.585938 163.664062 C 214.632812 163.664062 211.335938 160.367188 211.335938 156.414062 Z M 211.335938 68.542969 " fill-opacity="1" fill-rule="nonzero"/><path fill="#ffffff" d="M 187.609375 0 C 239.234375 0 286.246094 21.089844 320.078125 54.921875 C 353.910156 88.972656 375 135.765625 375 187.609375 C 375 239.234375 353.910156 286.246094 320.078125 320.078125 C 286.246094 353.910156 239.234375 375 187.609375 375 C 135.765625 375 88.972656 353.910156 54.921875 320.078125 C 21.089844 286.246094 0 239.234375 0 187.609375 C 0 135.765625 21.089844 88.972656 54.921875 54.921875 C 88.972656 21.089844 135.765625 0 187.609375 0 Z M 309.753906 65.246094 C 278.558594 34.050781 235.28125 14.71875 187.609375 14.71875 C 139.71875 14.71875 96.660156 34.050781 65.246094 65.246094 C 34.050781 96.660156 14.71875 139.71875 14.71875 187.609375 C 14.71875 235.28125 34.050781 278.558594 65.246094 309.753906 C 96.660156 340.949219 139.71875 360.28125 187.609375 360.28125 C 235.28125 360.28125 278.558594 340.949219 309.753906 309.753906 C 340.949219 278.558594 360.28125 235.28125 360.28125 187.609375 C 360.28125 139.71875 340.949219 96.660156 309.753906 65.246094 Z M 309.753906 65.246094 " fill-opacity="1" fill-rule="nonzero"/></svg>